<svg width="150" height="150" viewBox="0 0 150 150" fill="none" xmlns="http://www.w3.org/2000/svg">
<path fill-rule="evenodd" clip-rule="evenodd" d="M30 0C13.4315 0 0 13.4315 0 30V120C0 136.569 13.4315 150 30 150H120C136.569 150 150 136.569 150 120V30C150 13.4315 136.569 0 120 0H30ZM30 128.5V22C41.9874 22.367 62.5032 22.1953 76.5254 22.0779H76.5255C81.6091 22.0354 85.8392 22 88.5 22C101 22 121 40.5 118.5 62C116.5 79.2 101.667 90.8333 94.5 94.5L121 128.5H30ZM49.5 113V37.5H81.5C88.3333 39.5 101.8 47.2 101 62C100.2 76.8 81 85.5 71.5 88L90 113H49.5Z" fill="#2565DC"/>
</svg>
